Coordinates
version=1
nRows=5
nColumns=40
inDegrees=yes

Units are S.I. units (second, meters, Newtons, ...)
Angles are in degrees.

endheader
time	pelvis_tilt	pelvis_list	pelvis_rotation	pelvis_tx	pelvis_ty	pelvis_tz	hip_flexion_r	hip_adduction_r	hip_rotation_r	knee_angle_r	knee_angle_r_beta	ankle_angle_r	subtalar_angle_r	mtp_angle_r	hip_flexion_l	hip_adduction_l	hip_rotation_l	knee_angle_l	knee_angle_l_beta	ankle_angle_l	subtalar_angle_l	mtp_angle_l	lumbar_extension	lumbar_bending	lumbar_rotation	arm_flex_r	arm_add_r	arm_rot_r	elbow_flex_r	pro_sup_r	wrist_flex_r	wrist_dev_r	arm_flex_l	arm_add_l	arm_rot_l	elbow_flex_l	pro_sup_l	wrist_flex_l	wrist_dev_l
     45.96792857	     -7.03656496	     -2.90744205	     -4.10833396	      0.92498946	      0.92380568	      0.45093623	     29.65215181	     -1.06672017	    -12.22715617	     11.29790418	     11.29790418	      2.41250814	      8.05760632	     13.17292955	      5.34053404	     -2.81853658	    -11.28182032	     13.50297770	     13.50297770	     17.30886402	     -0.38862891	     -6.75548910	    -10.25288356	      0.76782982	     -0.27219067	    -19.11485800	    -13.94267767	     -4.29029415	     25.08337095	     46.50178644	      0.00000000	      0.00000000	     25.22031293	    -16.80307475	    -13.44033994	     66.81995598	     47.09063770	      0.00000000	      0.00000000
     45.98085714	     -7.00950861	     -2.81918445	     -4.09492349	      0.92588174	      0.92317770	      0.45278304	     29.01858084	     -0.90162661	    -13.01566092	     10.60997121	     10.60997121	      1.81617069	      8.65032448	     13.12672852	      4.18297911	     -2.71627416	    -11.55062731	     12.34563092	     12.34563092	     17.43700978	      0.53682113	     -6.76136375	    -10.17761740	      0.72212171	     -0.13460923	    -19.08215766	    -13.87424549	     -4.29976383	     25.19180606	     46.49637758	      0.00000000	      0.00000000	     24.91986048	    -16.45315422	    -13.35801891	     67.32056399	     47.09982297	      0.00000000	      0.00000000
     45.99378571	     -7.11789379	     -2.78717973	     -4.00393171	      0.92667927	      0.92198558	      0.45467081	     28.85991174	     -0.77782615	    -13.48041343	     10.88649129	     10.88649129	      1.56786024	      8.36012368	     12.96134402	      3.63531541	     -2.75988740	    -11.51697876	     12.07371206	     12.07371206	     17.76367467	      0.74838933	     -6.84140282	     -9.89838804	      0.77738894	     -0.16874630	    -18.84126256	    -13.81670232	     -4.29958419	     25.33067751	     46.49205358	      0.00000000	      0.00000000	     24.62421399	    -16.15672472	    -13.25187959	     67.35499292	     47.09258919	      0.00000000	      0.00000000
     46.00671429	     -6.99353735	     -2.63329531	     -3.92593820	      0.92801416	      0.92098672	      0.45664669	     28.38035552	     -0.77716466	    -13.66219304	     11.22457444	     11.22457444	      0.14994419	      7.75742105	      8.63519944	      2.64125339	     -2.66813065	    -11.87657152	     11.50978412	     11.50978412	     18.23843610	      1.68695136	     -6.54778321	     -9.88185716	      0.67367941	     -0.52220374	    -18.47527690	    -13.90467567	     -4.28387075	     26.05503794	     46.45353554	      0.00000000	      0.00000000	     23.62135672	    -16.29705001	    -13.32582574	     68.49402691	     47.14994423	      0.00000000	      0.00000000
     46.01964286	     -7.06778183	     -2.67373828	     -3.76978506	      0.92918030	      0.91988247	      0.45856668	     28.10530082	     -0.66601241	    -13.98510050	     11.78771325	     11.78771325	      0.06627509	      7.29166821	      8.43445481	      2.11395865	     -2.80562268	    -11.72203858	     11.37913550	     11.37913550	     18.61442857	      1.79678976	     -6.60073296	     -9.60953045	      0.85525643	     -0.46780980	    -18.02693043	    -13.81326077	     -4.25896979	     26.22957970	     46.44776602	      0.00000000	      0.00000000	     23.18351570	    -15.87599930	    -13.17716480	     68.30037611	     47.13419218	      0.00000000	      0.00000000
